<mxfile host="app.diagrams.net" agent="Mozilla/5.0 (Macintosh; Intel Mac OS X 10_15_7) AppleWebKit/537.36 (KHTML, like Gecko) Chrome/137.0.0.0 Safari/537.36 Edg/137.0.0.0" version="27.1.6">
  <diagram name="第 1 页" id="FFWr6u5y0ytz4Iyv65yv">
    <mxGraphModel dx="994" dy="561" grid="1" gridSize="10" guides="1" tooltips="1" connect="1" arrows="1" fold="1" page="1" pageScale="1" pageWidth="827" pageHeight="1169" math="0" shadow="0">
      <root>
        <mxCell id="0" />
        <mxCell id="1" parent="0" />
        <mxCell id="37rWsIUQvz2kM5Ei5rHp-4" value="" style="rounded=0;whiteSpace=wrap;html=1;dashed=1;dashPattern=8 8;" vertex="1" parent="1">
          <mxGeometry x="440" y="555" width="150" height="505" as="geometry" />
        </mxCell>
        <mxCell id="37rWsIUQvz2kM5Ei5rHp-3" value="" style="rounded=0;whiteSpace=wrap;html=1;dashed=1;dashPattern=8 8;" vertex="1" parent="1">
          <mxGeometry x="230" y="555" width="150" height="505" as="geometry" />
        </mxCell>
        <mxCell id="37rWsIUQvz2kM5Ei5rHp-1" value="" style="rounded=0;whiteSpace=wrap;html=1;dashed=1;dashPattern=8 8;" vertex="1" parent="1">
          <mxGeometry x="25" y="555" width="150" height="505" as="geometry" />
        </mxCell>
        <mxCell id="oveZRGWBptO2mNdlpd39-2" style="edgeStyle=orthogonalEdgeStyle;rounded=0;orthogonalLoop=1;jettySize=auto;html=1;exitX=0.5;exitY=0;exitDx=0;exitDy=0;entryX=0.5;entryY=1;entryDx=0;entryDy=0;" parent="1" source="oveZRGWBptO2mNdlpd39-3" target="oveZRGWBptO2mNdlpd39-12" edge="1">
          <mxGeometry relative="1" as="geometry" />
        </mxCell>
        <mxCell id="oveZRGWBptO2mNdlpd39-3" value="dao-a" style="rounded=1;whiteSpace=wrap;html=1;" parent="1" vertex="1">
          <mxGeometry x="180" y="200" width="120" height="60" as="geometry" />
        </mxCell>
        <mxCell id="oveZRGWBptO2mNdlpd39-4" style="edgeStyle=orthogonalEdgeStyle;rounded=0;orthogonalLoop=1;jettySize=auto;html=1;exitX=0.5;exitY=0;exitDx=0;exitDy=0;entryX=0;entryY=0.5;entryDx=0;entryDy=0;" parent="1" source="oveZRGWBptO2mNdlpd39-5" target="oveZRGWBptO2mNdlpd39-3" edge="1">
          <mxGeometry relative="1" as="geometry" />
        </mxCell>
        <mxCell id="oveZRGWBptO2mNdlpd39-5" value="service-a" style="rounded=1;whiteSpace=wrap;html=1;" parent="1" vertex="1">
          <mxGeometry x="80" y="300" width="120" height="60" as="geometry" />
        </mxCell>
        <mxCell id="oveZRGWBptO2mNdlpd39-6" style="edgeStyle=orthogonalEdgeStyle;rounded=0;orthogonalLoop=1;jettySize=auto;html=1;exitX=0.5;exitY=0;exitDx=0;exitDy=0;entryX=0.5;entryY=1;entryDx=0;entryDy=0;" parent="1" source="oveZRGWBptO2mNdlpd39-7" target="oveZRGWBptO2mNdlpd39-5" edge="1">
          <mxGeometry relative="1" as="geometry" />
        </mxCell>
        <mxCell id="oveZRGWBptO2mNdlpd39-7" value="controller-a" style="rounded=1;whiteSpace=wrap;html=1;" parent="1" vertex="1">
          <mxGeometry x="80" y="390" width="120" height="60" as="geometry" />
        </mxCell>
        <mxCell id="oveZRGWBptO2mNdlpd39-8" style="edgeStyle=orthogonalEdgeStyle;rounded=0;orthogonalLoop=1;jettySize=auto;html=1;exitX=0.5;exitY=0;exitDx=0;exitDy=0;entryX=1;entryY=0.5;entryDx=0;entryDy=0;" parent="1" source="oveZRGWBptO2mNdlpd39-9" target="oveZRGWBptO2mNdlpd39-3" edge="1">
          <mxGeometry relative="1" as="geometry" />
        </mxCell>
        <mxCell id="oveZRGWBptO2mNdlpd39-9" value="&lt;span style=&quot;background-color: transparent; color: light-dark(rgb(0, 0, 0), rgb(255, 255, 255));&quot;&gt;service-c&lt;/span&gt;" style="rounded=1;whiteSpace=wrap;html=1;" parent="1" vertex="1">
          <mxGeometry x="270" y="300" width="120" height="60" as="geometry" />
        </mxCell>
        <mxCell id="oveZRGWBptO2mNdlpd39-10" style="edgeStyle=orthogonalEdgeStyle;rounded=0;orthogonalLoop=1;jettySize=auto;html=1;exitX=0.5;exitY=0;exitDx=0;exitDy=0;entryX=0.5;entryY=1;entryDx=0;entryDy=0;" parent="1" source="oveZRGWBptO2mNdlpd39-11" target="oveZRGWBptO2mNdlpd39-9" edge="1">
          <mxGeometry relative="1" as="geometry" />
        </mxCell>
        <mxCell id="oveZRGWBptO2mNdlpd39-11" value="&lt;span style=&quot;background-color: transparent; color: light-dark(rgb(0, 0, 0), rgb(255, 255, 255));&quot;&gt;controller-c&lt;/span&gt;" style="rounded=1;whiteSpace=wrap;html=1;" parent="1" vertex="1">
          <mxGeometry x="270" y="390" width="120" height="60" as="geometry" />
        </mxCell>
        <mxCell id="oveZRGWBptO2mNdlpd39-12" value="database-a" style="rounded=1;whiteSpace=wrap;html=1;" parent="1" vertex="1">
          <mxGeometry x="180" y="70" width="120" height="60" as="geometry" />
        </mxCell>
        <mxCell id="oveZRGWBptO2mNdlpd39-13" value="database-b" style="rounded=1;whiteSpace=wrap;html=1;" parent="1" vertex="1">
          <mxGeometry x="570" y="70" width="120" height="60" as="geometry" />
        </mxCell>
        <mxCell id="oveZRGWBptO2mNdlpd39-14" style="edgeStyle=orthogonalEdgeStyle;rounded=0;orthogonalLoop=1;jettySize=auto;html=1;exitX=1;exitY=0.5;exitDx=0;exitDy=0;entryX=0.5;entryY=1;entryDx=0;entryDy=0;" parent="1" source="oveZRGWBptO2mNdlpd39-16" target="oveZRGWBptO2mNdlpd39-20" edge="1">
          <mxGeometry relative="1" as="geometry" />
        </mxCell>
        <mxCell id="oveZRGWBptO2mNdlpd39-15" style="edgeStyle=orthogonalEdgeStyle;rounded=0;orthogonalLoop=1;jettySize=auto;html=1;exitX=0;exitY=0.5;exitDx=0;exitDy=0;entryX=0.5;entryY=1;entryDx=0;entryDy=0;" parent="1" source="oveZRGWBptO2mNdlpd39-16" target="oveZRGWBptO2mNdlpd39-23" edge="1">
          <mxGeometry relative="1" as="geometry" />
        </mxCell>
        <mxCell id="oveZRGWBptO2mNdlpd39-16" value="&lt;span style=&quot;background-color: transparent; color: light-dark(rgb(0, 0, 0), rgb(255, 255, 255));&quot;&gt;service-b&lt;/span&gt;" style="rounded=1;whiteSpace=wrap;html=1;" parent="1" vertex="1">
          <mxGeometry x="570" y="300" width="120" height="60" as="geometry" />
        </mxCell>
        <mxCell id="oveZRGWBptO2mNdlpd39-17" style="edgeStyle=orthogonalEdgeStyle;rounded=0;orthogonalLoop=1;jettySize=auto;html=1;entryX=0.5;entryY=1;entryDx=0;entryDy=0;" parent="1" source="oveZRGWBptO2mNdlpd39-18" target="oveZRGWBptO2mNdlpd39-16" edge="1">
          <mxGeometry relative="1" as="geometry" />
        </mxCell>
        <mxCell id="oveZRGWBptO2mNdlpd39-18" value="&lt;span style=&quot;background-color: transparent; color: light-dark(rgb(0, 0, 0), rgb(255, 255, 255));&quot;&gt;controller-b&lt;/span&gt;" style="rounded=1;whiteSpace=wrap;html=1;" parent="1" vertex="1">
          <mxGeometry x="570" y="390" width="120" height="60" as="geometry" />
        </mxCell>
        <mxCell id="oveZRGWBptO2mNdlpd39-19" style="edgeStyle=orthogonalEdgeStyle;rounded=0;orthogonalLoop=1;jettySize=auto;html=1;exitX=0.5;exitY=0;exitDx=0;exitDy=0;entryX=0.5;entryY=1;entryDx=0;entryDy=0;" parent="1" source="oveZRGWBptO2mNdlpd39-20" target="oveZRGWBptO2mNdlpd39-13" edge="1">
          <mxGeometry relative="1" as="geometry" />
        </mxCell>
        <mxCell id="oveZRGWBptO2mNdlpd39-20" value="dao-b" style="rounded=1;whiteSpace=wrap;html=1;" parent="1" vertex="1">
          <mxGeometry x="670" y="200" width="120" height="60" as="geometry" />
        </mxCell>
        <mxCell id="oveZRGWBptO2mNdlpd39-21" style="edgeStyle=orthogonalEdgeStyle;rounded=0;orthogonalLoop=1;jettySize=auto;html=1;exitX=0;exitY=0.5;exitDx=0;exitDy=0;entryX=0.5;entryY=1;entryDx=0;entryDy=0;" parent="1" source="oveZRGWBptO2mNdlpd39-23" target="oveZRGWBptO2mNdlpd39-7" edge="1">
          <mxGeometry relative="1" as="geometry">
            <Array as="points">
              <mxPoint x="430" y="230" />
              <mxPoint x="430" y="490" />
              <mxPoint x="140" y="490" />
            </Array>
          </mxGeometry>
        </mxCell>
        <mxCell id="oveZRGWBptO2mNdlpd39-22" value="openfeign调用" style="edgeLabel;html=1;align=center;verticalAlign=middle;resizable=0;points=[];" parent="oveZRGWBptO2mNdlpd39-21" vertex="1" connectable="0">
          <mxGeometry x="-0.4063" y="1" relative="1" as="geometry">
            <mxPoint as="offset" />
          </mxGeometry>
        </mxCell>
        <mxCell id="oveZRGWBptO2mNdlpd39-23" value="&lt;span style=&quot;background-color: transparent; color: light-dark(rgb(0, 0, 0), rgb(255, 255, 255));&quot;&gt;service-feign-a&lt;/span&gt;" style="rounded=1;whiteSpace=wrap;html=1;" parent="1" vertex="1">
          <mxGeometry x="470" y="200" width="120" height="60" as="geometry" />
        </mxCell>
        <mxCell id="37rWsIUQvz2kM5Ei5rHp-13" style="edgeStyle=orthogonalEdgeStyle;rounded=0;orthogonalLoop=1;jettySize=auto;html=1;exitX=0;exitY=0.5;exitDx=0;exitDy=0;" edge="1" parent="1" source="TTS_ln8Ax7F4T7DwXjoz-1" target="TTS_ln8Ax7F4T7DwXjoz-2">
          <mxGeometry relative="1" as="geometry" />
        </mxCell>
        <mxCell id="37rWsIUQvz2kM5Ei5rHp-14" value="调用" style="edgeLabel;html=1;align=center;verticalAlign=middle;resizable=0;points=[];" vertex="1" connectable="0" parent="37rWsIUQvz2kM5Ei5rHp-13">
          <mxGeometry x="0.1179" y="-2" relative="1" as="geometry">
            <mxPoint as="offset" />
          </mxGeometry>
        </mxCell>
        <mxCell id="TTS_ln8Ax7F4T7DwXjoz-1" value="&lt;span style=&quot;background-color: transparent; color: light-dark(rgb(0, 0, 0), rgb(255, 255, 255));&quot;&gt;controller-b&lt;/span&gt;" style="rounded=1;whiteSpace=wrap;html=1;" parent="1" vertex="1">
          <mxGeometry x="245" y="610" width="120" height="60" as="geometry" />
        </mxCell>
        <mxCell id="37rWsIUQvz2kM5Ei5rHp-16" style="edgeStyle=orthogonalEdgeStyle;rounded=0;orthogonalLoop=1;jettySize=auto;html=1;exitX=1;exitY=0.5;exitDx=0;exitDy=0;entryX=0.25;entryY=0;entryDx=0;entryDy=0;" edge="1" parent="1" source="TTS_ln8Ax7F4T7DwXjoz-2" target="37rWsIUQvz2kM5Ei5rHp-6">
          <mxGeometry relative="1" as="geometry">
            <mxPoint x="305" y="770" as="targetPoint" />
          </mxGeometry>
        </mxCell>
        <mxCell id="37rWsIUQvz2kM5Ei5rHp-21" value="实现方式二" style="edgeLabel;html=1;align=center;verticalAlign=middle;resizable=0;points=[];" vertex="1" connectable="0" parent="37rWsIUQvz2kM5Ei5rHp-16">
          <mxGeometry x="-0.2107" relative="1" as="geometry">
            <mxPoint as="offset" />
          </mxGeometry>
        </mxCell>
        <mxCell id="37rWsIUQvz2kM5Ei5rHp-18" style="edgeStyle=orthogonalEdgeStyle;rounded=0;orthogonalLoop=1;jettySize=auto;html=1;exitX=0.5;exitY=1;exitDx=0;exitDy=0;entryX=0;entryY=0.5;entryDx=0;entryDy=0;" edge="1" parent="1" source="TTS_ln8Ax7F4T7DwXjoz-2" target="TTS_ln8Ax7F4T7DwXjoz-5">
          <mxGeometry relative="1" as="geometry">
            <Array as="points">
              <mxPoint x="100" y="800" />
            </Array>
          </mxGeometry>
        </mxCell>
        <mxCell id="37rWsIUQvz2kM5Ei5rHp-19" value="实现方式一" style="edgeLabel;html=1;align=center;verticalAlign=middle;resizable=0;points=[];" vertex="1" connectable="0" parent="37rWsIUQvz2kM5Ei5rHp-18">
          <mxGeometry x="0.1395" y="2" relative="1" as="geometry">
            <mxPoint as="offset" />
          </mxGeometry>
        </mxCell>
        <mxCell id="TTS_ln8Ax7F4T7DwXjoz-2" value="&lt;span style=&quot;background-color: transparent; color: light-dark(rgb(0, 0, 0), rgb(255, 255, 255));&quot;&gt;service-&lt;/span&gt;&lt;span style=&quot;background-color: transparent; color: light-dark(rgb(0, 0, 0), rgb(255, 255, 255));&quot;&gt;interface-b&lt;/span&gt;" style="rounded=1;whiteSpace=wrap;html=1;" parent="1" vertex="1">
          <mxGeometry x="40" y="690" width="120" height="60" as="geometry" />
        </mxCell>
        <mxCell id="37rWsIUQvz2kM5Ei5rHp-22" style="edgeStyle=orthogonalEdgeStyle;rounded=0;orthogonalLoop=1;jettySize=auto;html=1;exitX=0.5;exitY=1;exitDx=0;exitDy=0;" edge="1" parent="1" source="TTS_ln8Ax7F4T7DwXjoz-5" target="37rWsIUQvz2kM5Ei5rHp-20">
          <mxGeometry relative="1" as="geometry" />
        </mxCell>
        <mxCell id="37rWsIUQvz2kM5Ei5rHp-23" value="调用" style="edgeLabel;html=1;align=center;verticalAlign=middle;resizable=0;points=[];" vertex="1" connectable="0" parent="37rWsIUQvz2kM5Ei5rHp-22">
          <mxGeometry x="-0.2" y="1" relative="1" as="geometry">
            <mxPoint as="offset" />
          </mxGeometry>
        </mxCell>
        <mxCell id="TTS_ln8Ax7F4T7DwXjoz-5" value="&lt;span style=&quot;background-color: transparent; color: light-dark(rgb(0, 0, 0), rgb(255, 255, 255));&quot;&gt;service-impl-b&lt;/span&gt;" style="rounded=1;whiteSpace=wrap;html=1;" parent="1" vertex="1">
          <mxGeometry x="245" y="770" width="120" height="60" as="geometry" />
        </mxCell>
        <mxCell id="37rWsIUQvz2kM5Ei5rHp-2" value="&lt;b&gt;&lt;font style=&quot;font-size: 14px;&quot;&gt;module-b-interface&lt;/font&gt;&lt;/b&gt;" style="text;html=1;align=center;verticalAlign=middle;whiteSpace=wrap;rounded=0;" vertex="1" parent="1">
          <mxGeometry x="33.75" y="555" width="132.5" height="30" as="geometry" />
        </mxCell>
        <mxCell id="37rWsIUQvz2kM5Ei5rHp-9" style="edgeStyle=orthogonalEdgeStyle;rounded=0;orthogonalLoop=1;jettySize=auto;html=1;exitX=0;exitY=0.5;exitDx=0;exitDy=0;" edge="1" parent="1" source="37rWsIUQvz2kM5Ei5rHp-5" target="TTS_ln8Ax7F4T7DwXjoz-1">
          <mxGeometry relative="1" as="geometry" />
        </mxCell>
        <mxCell id="37rWsIUQvz2kM5Ei5rHp-10" value="feign调用" style="edgeLabel;html=1;align=center;verticalAlign=middle;resizable=0;points=[];" vertex="1" connectable="0" parent="37rWsIUQvz2kM5Ei5rHp-9">
          <mxGeometry x="-0.0444" y="-1" relative="1" as="geometry">
            <mxPoint as="offset" />
          </mxGeometry>
        </mxCell>
        <mxCell id="37rWsIUQvz2kM5Ei5rHp-5" value="&lt;span style=&quot;background-color: transparent; color: light-dark(rgb(0, 0, 0), rgb(255, 255, 255));&quot;&gt;feign-b&lt;/span&gt;" style="rounded=1;whiteSpace=wrap;html=1;" vertex="1" parent="1">
          <mxGeometry x="455" y="610" width="120" height="60" as="geometry" />
        </mxCell>
        <mxCell id="37rWsIUQvz2kM5Ei5rHp-11" style="edgeStyle=orthogonalEdgeStyle;rounded=0;orthogonalLoop=1;jettySize=auto;html=1;exitX=0.5;exitY=0;exitDx=0;exitDy=0;entryX=0.5;entryY=1;entryDx=0;entryDy=0;" edge="1" parent="1" source="37rWsIUQvz2kM5Ei5rHp-6" target="37rWsIUQvz2kM5Ei5rHp-5">
          <mxGeometry relative="1" as="geometry" />
        </mxCell>
        <mxCell id="37rWsIUQvz2kM5Ei5rHp-12" value="调用" style="edgeLabel;html=1;align=center;verticalAlign=middle;resizable=0;points=[];" vertex="1" connectable="0" parent="37rWsIUQvz2kM5Ei5rHp-11">
          <mxGeometry x="0.02" y="-1" relative="1" as="geometry">
            <mxPoint as="offset" />
          </mxGeometry>
        </mxCell>
        <mxCell id="37rWsIUQvz2kM5Ei5rHp-6" value="&lt;span style=&quot;background-color: transparent; color: light-dark(rgb(0, 0, 0), rgb(255, 255, 255));&quot;&gt;service-impl-b&lt;/span&gt;" style="rounded=1;whiteSpace=wrap;html=1;" vertex="1" parent="1">
          <mxGeometry x="455" y="770" width="120" height="60" as="geometry" />
        </mxCell>
        <mxCell id="37rWsIUQvz2kM5Ei5rHp-7" value="&lt;b&gt;&lt;font style=&quot;font-size: 14px;&quot;&gt;module-b-core&lt;/font&gt;&lt;/b&gt;" style="text;html=1;align=center;verticalAlign=middle;whiteSpace=wrap;rounded=0;" vertex="1" parent="1">
          <mxGeometry x="238.75" y="555" width="132.5" height="30" as="geometry" />
        </mxCell>
        <mxCell id="37rWsIUQvz2kM5Ei5rHp-8" value="&lt;b&gt;&lt;font style=&quot;font-size: 14px;&quot;&gt;module-b-feign&lt;/font&gt;&lt;/b&gt;" style="text;html=1;align=center;verticalAlign=middle;whiteSpace=wrap;rounded=0;" vertex="1" parent="1">
          <mxGeometry x="448.75" y="555" width="132.5" height="30" as="geometry" />
        </mxCell>
        <mxCell id="37rWsIUQvz2kM5Ei5rHp-20" value="&lt;span style=&quot;background-color: transparent; color: light-dark(rgb(0, 0, 0), rgb(255, 255, 255));&quot;&gt;dao-b&lt;/span&gt;" style="rounded=1;whiteSpace=wrap;html=1;" vertex="1" parent="1">
          <mxGeometry x="245" y="880" width="120" height="60" as="geometry" />
        </mxCell>
      </root>
    </mxGraphModel>
  </diagram>
</mxfile>
